Coordinates
version=1
nRows=16
nColumns=38
inDegrees=yes

Units are S.I. units (second, meters, Newtons, ...)
Angles are in degrees.

endheader
time	first_body_tilt	first_body_list	first_body_rotation	first_body_tx	first_body_ty	first_body_tz	hip_flexion_r	hip_adduction_r	hip_rotation_r	knee_angle_r	ankle_angle_r	subtalar_angle_r	mtp_angle_r	hip_flexion_l	hip_adduction_l	hip_rotation_l	knee_angle_l	ankle_angle_l	subtalar_angle_l	mtp_angle_l	lumbar_extension	lumbar_bending	lumbar_rotation	arm_flex_r	arm_add_r	arm_rot_r	elbow_flex_r	pro_sup_r	wrist_flex_r	wrist_dev_r	arm_flex_l	arm_add_l	arm_rot_l	elbow_flex_l	pro_sup_l	wrist_flex_l	wrist_dev_l
0.960000	-64.413181	0.703721	10.875938	0.964807	0.237367	-0.062762	18.251414	5.675530	-2.368724	-20.221401	7.256760	0.000000	0.000000	21.863540	-9.326928	-5.913557	-70.007023	-14.792249	0.000000	0.000000	-3.649330	1.564605	7.376979	8.273506	-12.269392	5.376378	38.636484	110.985314	0.000000	0.000000	-1.254505	-8.941394	-22.261457	15.531164	113.302643	0.000000	0.000000	
0.965000	-63.405681	0.599791	10.728111	0.976415	0.236002	-0.062542	17.910930	5.510148	-2.262712	-20.060326	7.399565	0.000000	0.000000	22.634922	-9.026633	-5.919210	-70.216262	-14.299418	0.000000	0.000000	-3.666899	1.351416	7.539671	8.657435	-12.317727	5.418048	38.892779	110.939018	0.000000	0.000000	-1.435310	-8.986928	-22.322865	15.513841	113.239337	0.000000	0.000000	
0.970000	-62.367109	0.496407	10.592983	0.988191	0.234342	-0.062296	17.566717	5.356030	-2.162646	-19.890581	7.538342	0.000000	0.000000	23.392389	-8.746554	-5.942455	-70.361574	-13.825810	0.000000	0.000000	-3.680694	1.150026	7.703521	9.030292	-12.362335	5.449119	39.154691	110.888386	0.000000	0.000000	-1.622005	-9.032633	-22.383797	15.520988	113.185380	0.000000	0.000000	
0.975000	-61.285264	0.397360	10.473188	1.000122	0.232384	-0.062013	17.218427	5.215106	-2.069703	-19.712002	7.673879	0.000000	0.000000	24.135017	-8.489953	-5.983328	-70.444462	-13.355552	0.000000	0.000000	-3.690565	0.962618	7.867995	9.390944	-12.403583	5.470686	39.424825	110.828089	0.000000	0.000000	-1.813947	-9.077886	-22.447308	15.553124	113.143597	0.000000	0.000000	
0.980000	-60.148369	0.305741	10.370924	1.012190	0.230124	-0.061684	16.866124	5.087811	-1.984212	-19.524353	7.806754	0.000000	0.000000	24.861921	-8.258061	-6.041844	-70.465393	-12.874172	0.000000	0.000000	-3.696249	0.789790	8.032452	9.738591	-12.441379	5.482468	39.705173	110.754465	0.000000	0.000000	-2.010207	-9.122130	-22.515833	15.611689	113.113996	0.000000	0.000000	
0.985000	-58.947465	0.223511	10.287769	1.024387	0.227557	-0.061307	16.510121	4.973475	-1.905769	-19.327261	7.937290	0.000000	0.000000	25.572240	-8.050496	-6.117908	-70.423954	-12.371087	0.000000	0.000000	-3.697474	0.630946	8.196220	10.072895	-12.475272	5.483253	39.996864	110.665791	0.000000	0.000000	-2.209688	-9.164878	-22.591264	15.698485	113.094146	0.000000	0.000000	
0.990000	-57.678032	0.151309	10.224555	1.036709	0.224683	-0.060883	16.150777	4.870826	-1.833424	-19.120193	8.065570	0.000000	0.000000	26.265107	-7.865800	-6.211185	-70.319161	-11.841098	0.000000	0.000000	-3.694082	0.484783	8.358650	10.394041	-12.504591	5.471455	40.300036	110.562289	0.000000	0.000000	-2.411230	-9.205734	-22.675084	15.814967	113.079909	0.000000	0.000000	
0.995000	-56.340614	0.088507	10.181290	1.049156	0.221504	-0.060418	15.788303	4.778485	-1.765906	-18.902476	8.191506	0.000000	0.000000	26.939608	-7.702033	-6.320956	-70.149857	-11.284727	0.000000	0.000000	-3.686124	0.349793	8.519153	10.702721	-12.528590	5.445666	40.613836	110.445877	0.000000	0.000000	-2.613698	-9.244397	-22.768529	15.961550	113.066317	0.000000	0.000000	
1.000000	-54.940434	0.033473	10.157201	1.061738	0.218029	-0.059922	15.422607	4.695389	-1.701841	-18.673349	8.314918	0.000000	0.000000	27.594759	-7.557279	-6.446017	-69.915090	-10.707487	0.000000	0.000000	-3.673926	0.224700	8.677209	11.000017	-12.546593	5.405086	40.936585	110.319686	0.000000	0.000000	-2.816019	-9.280668	-22.872792	16.137096	113.048429	0.000000	0.000000	
1.005000	-53.486179	-0.016012	10.150869	1.074465	0.214270	-0.059408	15.053217	4.621046	-1.639949	-18.432034	8.435609	0.000000	0.000000	28.229514	-7.430019	-6.584639	-69.614428	-10.118311	0.000000	0.000000	-3.658093	0.108757	8.832352	11.287216	-12.558116	5.349796	41.266063	110.187418	0.000000	0.000000	-3.017180	-9.314428	-22.989257	16.338676	113.022004	0.000000	0.000000	
1.010000	-51.988272	-0.062302	10.160453	1.087349	0.210245	-0.058890	14.679290	4.555618	-1.579194	-18.177808	8.553412	0.000000	0.000000	28.842795	-7.319305	-6.734602	-69.248130	-9.527545	0.000000	0.000000	-3.639459	0.001885	8.984137	11.565593	-12.562954	5.280837	41.599860	110.052630	0.000000	0.000000	-3.216191	-9.345592	-23.119740	16.561669	112.983923	0.000000	0.000000	
1.015000	-50.457008	-0.107473	10.183965	1.100405	0.205974	-0.058379	14.299701	4.499820	-1.518905	-17.910074	8.668211	0.000000	0.000000	29.433554	-7.224736	-6.893299	-68.817177	-8.944928	0.000000	0.000000	-3.618997	-0.095352	9.132088	11.836195	-12.561246	5.200138	41.935739	109.918069	0.000000	0.000000	-3.412014	-9.374041	-23.266679	16.800142	112.932336	0.000000	0.000000	
1.020000	-48.900942	-0.153027	10.219513	1.113643	0.201478	-0.057887	13.913201	4.454685	-1.458840	-17.628425	8.779923	0.000000	0.000000	30.000832	-7.146267	-7.057872	-68.323136	-8.377950	0.000000	0.000000	-3.597708	-0.181907	9.275657	12.099687	-12.553486	5.110321	42.271916	109.785171	0.000000	0.000000	-3.603507	-9.399550	-23.433205	17.047459	112.866587	0.000000	0.000000	
1.025000	-47.325791	-0.199757	10.265484	1.127073	0.196777	-0.057425	13.518615	4.421257	-1.399211	-17.332700	8.888481	0.000000	0.000000	30.543808	-7.083907	-7.225367	-67.767897	-7.830860	0.000000	0.000000	-3.576507	-0.256503	9.414191	12.356268	-12.540506	5.014451	42.607226	109.653839	0.000000	0.000000	-3.789388	-9.421740	-23.622996	17.296974	112.787007	0.000000	0.000000	
1.030000	-45.733983	-0.247763	10.320600	1.140702	0.191889	-0.057003	13.115054	4.400282	-1.340651	-17.023030	8.993797	0.000000	0.000000	31.061823	-7.037384	-7.392886	-67.153326	-7.304417	0.000000	0.000000	-3.556120	-0.317932	9.546944	12.605682	-12.523406	4.915757	42.941150	109.522550	0.000000	0.000000	-3.968255	-9.440072	-23.839871	17.542726	112.694676	0.000000	0.000000	
1.035000	-44.124834	-0.296591	10.383857	1.154532	0.186828	-0.056627	12.702120	4.391948	-1.284106	-16.699897	9.095755	0.000000	0.000000	31.554372	-7.005851	-7.557708	-66.480887	-6.796320	0.000000	0.000000	-3.536992	-0.365345	9.673125	12.847308	-12.503452	4.817363	43.273706	109.388790	0.000000	0.000000	-4.138669	-9.453900	-24.087128	17.780019	112.591217	0.000000	0.000000	
